<?xml version="1.0" encoding="UTF-8"?>
<svg width="393px" height="124px" viewBox="0 0 393 124" version="1.1" xmlns="http://www.w3.org/2000/svg" xmlns:xlink="http://www.w3.org/1999/xlink">
    <!-- Generator: Sketch 42 (36781) - http://www.bohemiancoding.com/sketch -->
    <title>Logo</title>
    <desc>Created with Sketch.</desc>
    <defs></defs>
    <g id="Symbols" stroke="none" stroke-width="1" fill="none" fill-rule="evenodd">
        <g id="Logo">
            <text id="Sketch" font-family="ProximaNova-Extrabld, Proxima Nova" font-size="72" font-weight="600" letter-spacing="0.200000003" fill="#000000">
                <tspan x="150" y="71">Sketch</tspan>
            </text>
            <rect id="Rectangle" fill="#4990E2" x="0" y="0" width="124" height="124" rx="10"></rect>
            <g id="3" transform="translate(18.000000, 21.000000)">
                <path d="M0,21.9441285 L12.5402328,6.35564771 L27.3571902,0 L44.5,6.33831683e-07 L44.5,82 L0,21.9441285 Z M89,21.9441285 L76.4597672,6.35564771 L61.6428098,0 L44.5,6.33831683e-07 L44.5,82 L89,21.9441285 Z M4.25367647,22.5541488 L15.6413143,8.41137393 L29.096419,2.64516129 L44.6636029,2.64516187 L44.6636029,77.0403226 L4.25367647,22.5541488 Z M85.0735294,22.5541488 L73.6858916,8.41137393 L60.2307869,2.64516129 L44.6636029,2.64516187 L44.6636029,77.0403226 L85.0735294,22.5541488 Z" id="Combined-Shape" fill="#B3D1F3"></path>
                <path d="M15.171297,8.26031691 L27.7016207,15.2677986 L61.6860008,15.2677986 L74.7058321,7.8441044 L74.7058321,8.26031691 M61.5565652,15.2648926 L73.6484842,30.9343734 L87.3962438,21.0311634 M27.8447732,15.2648926 L15.7528543,30.9343734 L2.00509464,21.0311634 M73.383807,30.4832259 L43.6423581,78.151712 L44.4727163,78.6807398 L74.2141652,31.0122536 L87.0214844,21.8769531 M16.0058046,30.4832259 L45.7472535,78.151712 L44.9168952,78.6807398 L15.1754463,31.0122536 L3.63476562,22.6132812 M16.0989129,30.9734089 L73.5074186,30.9734089 L73.5074186,30.4193548 L16.0989129,30.4193548" id="Combined-Shape" stroke="#B3D1F3"></path>
            </g>
            <text id="PLUGIN-BOILERPLATE" font-family="ProximaNova-Semibold, Proxima Nova" font-size="22" font-weight="500" letter-spacing="0.200000003" fill="#9B9B9B">
                <tspan x="150" y="100">PLUGIN BOILERPLATE</tspan>
            </text>
        </g>
    </g>
</svg>